# xmcd
#
# Track frame offsets: 
#        182
#        19587
#        51625
#        76590
#        95562
#        117380
#        136427
#        165165
#        188642
#        208802
#
# Disc length: 3037 seconds
#
# Revision: 0
# Processed by: cddbd v1.4PL0 Copyright (c) Steve Scherf et al.
# Submitted via: ExactAudioCopy v0.90b4
#
DISCID=7f0bdb0a
DTITLE=Jimmy Johnson - Every Road Ends Somewhere
DYEAR=1999
DGENRE=Blues
TTITLE0=Roots Of All Evil
TTITLE1=My Baby By My Side
TTITLE2=Blue Monday
TTITLE3=Rock And A Hard Place
TTITLE4=The Street You Live On
TTITLE5=Ain't No Way
TTITLE6=Black Night
TTITLE7=Cut You Loose
TTITLE8=End Of The Road
TTITLE9=Everyday Of Your Life
EXTD=
EXTT0=
EXTT1=
EXTT2=
EXTT3=
EXTT4=
EXTT5=
EXTT6=
EXTT7=
EXTT8=
EXTT9=
PLAYORDER=
